<svg xmlns="http://www.w3.org/2000/svg" viewBox="0 0 24 24" width="100" height="100">
  <!-- <rect width="24" height="24" rx="4" fill="#D3D3D3" /> -->
  <!-- <path d="M12 2C6.48 2 2 6.48 2 12s4.48 10 10 10 10-4.48 10-10S17.52 2 12 2zm-1 17.93c-4.01-.49-7.23-3.71-7.72-7.73H11v7.73zM4.27 12c.49-4.02 3.71-7.24 7.73-7.73V11H4.27zM12 4.27C16.01 4.76 19.23 7.98 19.72 12H13V4.27zM19.73 12c-.49 4.02-3.71 7.24-7.73 7.73V13h7.73z" fill="#C5C5C5"/> -->
  <text x="2" y="22" font-family="Arial" font-size="12" fill="#C5C5C5">A</text>
  <text x="8" y="13" font-family="Arial" font-size="14" fill="#C5C5C5">翻</text>
</svg>
